<svg id="svg8068" xmlns:rdf="http://www.w3.org/1999/02/22-rdf-syntax-ns#" xmlns="http://www.w3.org/2000/svg" height="121.32mm" width="277.46mm" version="1.1" xmlns:cc="http://creativecommons.org/ns#" xmlns:dc="http://purl.org/dc/elements/1.1/" viewBox="0 0 983.1292 429.88666">
 <path id="path8070" stroke-linejoin="round" letter-spacing="0" stroke-width="2" d="m424.47 268.32l-3.122 45.605q-0.814 27.146-5.565 44.383-6.108 21.988-19.545 32.439-16.287 12.623-47.098 12.623-18.052 0-30.268-2.443-17.102-3.393-17.102-14.116 0-12.08 11.808-12.08 4.886 0 16.287 2.307 11.401 2.443 25.246 2.172 26.06-0.407 35.968-25.246 6.515-16.559 6.922-50.898-7.329 13.573-17.509 20.359-10.044 6.786-23.074 6.786-24.567 0-40.04-16.695-15.337-16.83-15.337-43.569 0-36.647 21.038-59.042 21.717-23.074 59.178-23.074 12.623 0 21.174 3.257 8.551 3.258 13.03 9.772 14.523 0.407 14.523 16.152 0 9.637-2.85 25.789-3.122 18.731-3.665 25.517zm-43.569-58.771q-25.789 0-39.904 17.78-12.623 16.016-12.623 40.719 0 19.681 7.465 29.589t22.395 9.908q13.709 0 26.603-15.473 11.673-14.252 13.301-28.232 2.85-14.659 6.108-46.012-5.429-4.208-11.266-6.244-5.836-2.036-12.08-2.036zm-101.8 38.004q0 9.772 0.136 29.317t0.136 29.317q0 2.986 0.407 9.094 0.543 6.108 0.543 9.094 0 5.836-3.936 9.501-3.936 3.8-9.637 3.8-10.451 0-13.301-12.894-16.966 8.822-39.09 8.822-17.78 0-29.453-7.872-12.894-8.687-15.337-25.381-5.293-35.968-5.293-64.064 0-18.595 4.072-42.347 1.9-11.808 12.894-11.808 5.836 0 9.772 3.8 3.936 3.665 3.936 9.501 0 6.244-2.036 19.952-1.9 13.709-1.9 20.902 0 22.667 1.493 38.818 1.493 16.152 4.479 25.924 4.479 2.443 8.822 3.8 4.343 1.222 8.551 1.222 18.188 0 38.411-5.836l-0.136-27.553-0.271-26.331q0-29.317 2.579-50.898 1.493-12.487 13.166-12.487 5.836 0 9.772 3.8t3.665 9.501l-2.443 51.306zm-184.73 73.837q-30.539 11.944-78.044 11.944-5.836 0-11.13-5.565-5.158-5.429-5.158-11.266v-39.497q0-19.409 2.443-55.377 2.715-38.818 2.986-56.192-0.136-12.487 1.493-37.19 0.95-6.786 4.479-8.958 18.459-5.701 41.94-5.701 23.888 0 45.876 16.287 25.381 18.731 25.381 46.284 0 34.882-27.146 54.97 20.359 8.687 30.403 19.274 10.18 10.587 10.18 23.074 0 16.423-17.78 31.761-12.351 10.858-25.924 16.152zm-40.99-180.11q-14.794 0-20.767 0.95l-0.271 23.753-2.715 52.527q19.274 1.629 20.631 1.493 20.495-1.629 33.525-12.759 13.98-12.08 13.98-31.082 0-12.894-14.252-23.888t-30.132-10.994zm15.202 108.72l-14.387-2.307q-1.764 0-5.429 0.271-3.529 0.136-5.429 0.136-7.329 0-15.609-1.222-0.814 17.102-0.814 30.539v28.096q35.561-1.222 57.956-10.044 9.501-3.665 18.188-11.401 8.279-7.058 8.279-10.587 0-6.379-17.373-14.387-13.03-6.108-25.381-9.094zm478.77-179.74c-0.722-2.366-2.15-4.49-4.911-7.304-3.161-3.223-4.17-3.325-6.113-0.619-2.209 3.075-4.436 3.816-7.555 2.512-3.005-1.255-4.424-3.296-6.636-9.537-1.133-3.197-1.153-3.222-3.652-4.416-3.252-1.554-3.694-2.093-4.234-5.154l-0.449-2.547-3.078-0.914c-4.284-1.272-4.502-1.488-4.846-4.818-0.25-2.418-0.493-3.031-1.683-4.26-0.765-0.789-2.029-1.779-2.809-2.199-1.135-0.611-1.475-1.106-1.704-2.477-0.788-4.725-4.674-12.977-7.693-16.334-2.319-2.579-3.442-3.189-6.919-3.756-1.483-0.242-3.63-0.725-4.771-1.074-4.532-1.385-5.943-0.552-9.135 5.391-0.968 1.802-1.942 3.277-2.165 3.277-0.628 0 0.009-2.913 1.176-5.38 1.257-2.657 3.395-4.566 7.707-6.886 1.773-0.954 3.87-2.199 4.66-2.768 1.777-1.278 2.488-1.293 4.128-0.082 2.615 1.93 4.181 4.317 9.672 14.743 4.989 9.474 7.974 14.06 10.816 16.615 1.187 1.067 2.304 1.94 2.482 1.94s0.934 1.284 1.681 2.854c1.658 3.486 2.666 4.632 4.95 5.623 1.275 0.553 2.231 1.458 3.468 3.279 1.813 2.67 2.346 3.044 4.344 3.044 2.677 0 5.119-0.959 6.979-2.741 1.712-1.64 1.842-1.92 1.842-3.965 0-2.66 0.729-3.154 2.607-1.765 1.313 0.971 2.099 0.985 4.895 0.091 1.221-0.39 1.591-0.291 3.371 0.905 2.751 1.85 5.39 5.278 8.324 10.815 1.366 2.577 2.709 4.874 2.984 5.102 0.372 0.309-0.411 2.22-3.031 7.403-1.943 3.843-3.687 6.987-3.875 6.987s-0.56-0.714-0.826-1.586zm-121.45 82.488c-0.361-0.094-0.882-1.014-1.158-2.045-0.32-1.195-0.9-2.136-1.601-2.595-1.216-0.797-4.195-0.976-7.646-0.459l-2.181 0.327-0.712-1.863c-0.832-2.179-1.442-2.372-7.519-2.379-4.951-0.006-6.441-0.632-7.071-2.972-0.406-1.507-0.608-1.731-1.399-1.542-0.508 0.121-2.856 0.352-5.216 0.513-4.933 0.337-5.054 0.258-5.509-3.585-0.222-1.875-0.358-2.083-1.511-2.313-0.697-0.139-3.123-0.253-5.391-0.253-4.902 0-5.184-0.2-5.027-3.573l0.109-2.352-5.68-3.423c-12.283-7.403-15.791-8.652-23.227-8.275-4.622 0.235-8.955 1.147-9.219 1.94-0.294 0.883-0.901 0.448-2.008-1.442-1.24-2.116-1.99-2.313-5.474-1.436-3.78 0.952-6.939 5.233-7.614 10.315-0.374 2.822-0.61 3.594-1.097 3.594-0.764 0-1.086-1.826-0.702-3.981 1.037-5.822 5.851-12.281 10.092-13.54 1.42-0.422 2.868-1.292 4.156-2.497 3.821-3.574 5.917-3.521 14.559 0.373 7.459 3.36 17.098 8.961 29.147 16.937 8.334 5.517 10.69 6.891 11.48 6.692 0.704-0.177 2.208 0.383 5.158 1.919 4.217 2.196 4.956 2.397 6.986 1.899 0.849-0.208 2.111 0.197 5.074 1.629 5.007 2.42 5.555 2.57 7.282 2 1.24-0.409 1.679-0.332 3.439 0.604 1.11 0.59 2.255 1.073 2.545 1.073s1.987-1.326 3.771-2.946c3.37-3.061 3.488-3.111 8.468-3.601 2.888-0.284 6.089-1.649 8.249-3.517l1.48-1.28-1.451-1.51c-0.798-0.83-1.351-1.61-1.229-1.732s1.684 0.005 3.47 0.283l3.248 0.505 1.786-1.719c2.023-1.947 5.524-4.347 9.711-6.657 1.568-0.865 2.97-1.766 3.116-2.003 0.146-0.236-0.745-1.453-1.98-2.704s-2.146-2.373-2.024-2.495 1.849 0.199 3.837 0.713l3.616 0.935 2.375-1.886c2.283-1.813 6.226-4.428 7.195-4.772 0.283-0.1 0.077-0.699-0.523-1.527-0.544-0.749-0.921-1.43-0.839-1.512s1.205 0.144 2.495 0.504l2.345 0.653 6.163-1.95c5.1-1.614 6.722-1.95 9.41-1.95 3.466 0 4.3-0.28 6.483-2.176 1.487-1.292 3.272-1.558 4.876-0.728 1.153 0.597 9.169 6.308 9.169 6.532 0 0.091-0.556 1.072-1.235 2.18-1.55 2.528-3.491 7.458-4.457 11.317-0.407 1.628-0.816 3.214-0.908 3.525-0.122 0.412-0.498 0.287-1.385-0.46-0.67-0.564-2.492-1.77-4.048-2.68-2.502-1.463-3.001-1.98-4.305-4.46-3.455-6.573-5.615-6.496-13.472 0.479-2.097 1.861-4.542 3.422-8.386 5.352-2.984 1.498-6.504 3.458-7.822 4.356s-5.586 3.356-9.483 5.464c-3.898 2.107-8.179 4.581-9.514 5.497-4.848 3.328-8.905 8.447-9.651 12.176-0.148 0.739-0.787 1.566-1.645 2.128-2.172 1.424-8.152 2.851-9.969 2.378zm505.15 153.39c0.538-7.121-0.029-8.566-5.402-13.776-5.535-5.367-9.321-7.193-16.377-7.898-2.853-0.285-6.596-0.693-8.317-0.908-2.569-0.32-3.196-0.216-3.501 0.578-0.259 0.676-0.801 0.86-1.795 0.611-1.147-0.288-1.539-0.054-2.016 1.2-0.326 0.857-0.709 1.558-0.851 1.558s-1.634-0.714-3.315-1.586c-2.572-1.335-3.291-1.479-4.54-0.91-0.816 0.372-1.484 1.085-1.484 1.586 0 1.275-0.813 1.132-2.15-0.377-1.686-1.903-6.271-4.693-7.714-4.693-0.692 0-1.583 0.325-1.98 0.721-0.563 0.563-1.344 0.123-3.558-2.005-4.553-4.376-8.522-7.088-10.377-7.088-2.566 0-5.461-2.981-7.97-8.206-1.228-2.558-2.655-5.121-3.171-5.697-1.436-1.601-3.596-1.281-5.514 0.818-1.935 2.118-3.013 1.866-3.013-0.704 0-1.05-0.315-1.759-0.783-1.759-2.017 0-2.781-1.538-3.368-6.782-0.518-4.631-1.121-6.451-4.854-14.65-2.344-5.15-5.482-11.62-6.973-14.378-2.993-5.535-10.771-16.138-17.597-23.987-2.431-2.796-6.805-8.043-9.719-11.661s-7.414-8.548-9.999-10.957c-2.849-2.654-5.529-5.834-6.803-8.073-2.613-4.589-3.254-5.413-4.894-6.287-1.943-1.035-2.459-0.887-4.555 1.306-2.094 2.191-5.692 3.863-13.763 6.396-3.629 1.139-5.336 1.439-5.475 0.964-0.111-0.38-0.478-2.171-0.815-3.98-0.865-4.646-2.021-7.091-5.497-11.626l-3.038-3.963 6.284-3.002c3.456-1.651 7.306-3.16 8.554-3.352 1.248-0.193 2.958-0.696 3.799-1.119 1.786-0.897 4.135-0.042 9.742 3.544 3.372 2.157 23.454 20.829 29.58 27.503 1.856 2.022 4.321 4.108 5.479 4.637 2.576 1.177 4.847 3.575 3.75 3.959-1.45 0.507-0.699 1.817 3.974 6.933 2.597 2.843 5.576 6.684 6.622 8.536 1.057 1.873 4.027 5.386 6.693 7.916 2.636 2.502 4.5 4.646 4.142 4.765-0.969 0.323-0.786 2.329 0.248 2.726 0.494 0.19 2.34 2.579 4.101 5.309 2.02 3.132 4.818 6.395 7.578 8.838 3.715 3.289 4.179 3.903 3.074 4.065-0.757 0.111-1.301 0.621-1.301 1.219 0 1.597 7.383 10.521 14.179 17.138 3.384 3.295 6.152 6.17 6.152 6.391 0 0.22-0.942 0.247-2.093 0.061-2.579-0.418-2.664 0.203-0.641 4.678 0.798 1.766 1.635 4.481 1.859 6.033s0.765 3.118 1.202 3.481 3.032 1.247 5.765 1.965c4.391 1.153 4.97 1.464 4.97 2.667 0 2.009 1.272 2.501 6.484 2.511 3.959 0.008 4.733 0.172 4.964 1.056 0.253 0.966 1.601 1.048 17.435 1.061 14.676 0.013 17.718 0.171 21.012 1.092 5.227 1.462 7.967 2.949 10.017 5.436 1.247 1.513 3.454 2.849 7.964 4.821 3.431 1.501 6.888 3.325 7.68 4.054 1.898 1.745 3.646 5.613 3.663 8.102 0.016 2.425-1.118 2.294-2.04-0.235-1.292-3.547-2.791-5.628-5.273-7.326-5.319-3.637-9.313-3.968-10.493-0.868-0.346 0.909-0.803 4.328-1.017 7.598-0.372 5.686-1.432 9.302-2.728 9.302-0.391 0-0.464-1.861-0.205-5.285zm31.184-99.188c-0.373-7.813-1.157-10.339-3.21-10.339-0.798 0-3.291-0.926-5.539-2.059-7.393-3.723-10.628-4.519-18.36-4.519-6.25 0-16.661 1.118-21.473 2.306-1.335 0.33-1.942 0.937-2.371 2.377-0.535 1.791-0.711 1.899-2.392 1.466-0.998-0.257-4.078-0.468-6.845-0.468h-5.031l-0.582 1.794c-0.32 0.987-0.626 1.852-0.679 1.923s-2.575-0.803-5.604-1.943-6.178-2.073-6.997-2.073c-1.256 0-1.489 0.281-1.489 1.794 0 2.255-0.867 2.299-9.589 0.486-3.465-0.72-6.762-1.133-7.325-0.916-0.594 0.228-1.025 1.029-1.025 1.907 0 1.953-1.134 1.949-5.366-0.022-2.597-1.209-4.326-1.547-8.372-1.639-4.758-0.107-5.094-0.035-5.03 1.081 0.038 0.658 0.266 1.66 0.506 2.226 0.387 0.911-0.054 0.863-3.801-0.411-5.447-1.853-6.545-2.661-8.771-6.461-1.18-2.014-3.342-4.3-6.068-6.417-2.329-1.809-6.976-5.516-10.328-8.238-7.13-5.792-18.533-13.958-29.972-21.463-4.474-2.936-9.587-6.57-11.362-8.076-3.877-3.29-8.776-6.446-12.652-8.15-1.566-0.688-3.01-1.676-3.209-2.195-0.499-1.301-4.834-3.726-7.547-4.222-2.158-0.395-2.243-0.503-2.269-2.885-0.014-1.361-0.386-3.484-0.827-4.717-0.764-2.141-0.743-2.242 0.475-2.235 1.792 0.01 6.412 1.336 12.195 3.501 3.934 1.472 5.518 1.781 7.774 1.514l2.833-0.335-1.465 1.188c-1.276 1.035-1.359 1.316-0.642 2.181 1.736 2.092 4.162 2.828 8.006 2.429l3.669-0.381-2.019 1.722-2.019 1.722 1.685 1.325c0.927 0.729 4.302 2.635 7.5 4.237 5.521 2.764 6.007 2.897 9.603 2.624 3.716-0.281 3.763-0.266 2.513 0.8-0.701 0.598-1.777 1.391-2.392 1.764-1.068 0.647-1.051 0.75 0.378 2.302 2.109 2.291 7.617 6.614 15.119 11.866 5.557 3.891 6.899 4.564 9.815 4.929 3.098 0.387 3.282 0.492 2.228 1.27-2.212 1.632-0.181 4.661 4.83 7.199 1.644 0.833 4.066 2.258 5.382 3.167 1.723 1.19 4.279 2.033 9.135 3.011l6.743 1.358-1.511 1.577c-1.563 1.632-1.971 3.007-0.892 3.007 0.412 0 0.397 0.416-0.046 1.243-0.366 0.683-0.51 1.646-0.321 2.139 0.293 0.762 1.461 0.833 7.82 0.47 6.695-0.381 7.476-0.324 7.476 0.552 0 1.398 2.146 1.227 9.843-0.783 5.858-1.53 6.626-1.613 7.235-0.78 0.581 0.794 1.596 0.863 6.901 0.465 3.421-0.257 7.578-0.431 9.238-0.388 1.954 0.051 4.892-0.555 8.334-1.718 2.981-1.008 6.574-1.797 8.181-1.797 1.576 0 8.455-1.094 15.286-2.43 10.209-1.998 13.827-2.45 20.322-2.541l7.901-0.111 2.153 2.212c1.659 1.705 2.795 2.301 4.955 2.602 9.277 1.294 11.957 3.302 10.447 7.83-0.788 2.365-1.851 2.416-2.073 0.099-0.166-1.728-0.602-2.189-3.437-3.624-3.556-1.801-6.62-2.17-6.62-0.796 0 0.467 0.926 2.78 2.057 5.141 2.674 5.579 3.179 9.497 1.728 13.396-1.788 4.803-2.398 4.12-2.742-3.066zm-215.34-88.749c-0.206-1.028-0.374-2.853-0.374-4.056s-0.364-3.591-0.809-5.307c-0.712-2.745-0.7-3.12 0.097-3.12 1.129 0 4.351-1.864 13.75-7.954l7.357-4.767 1.704 1.632c1.657 1.588 1.808 1.616 5.529 1.037 2.104-0.328 6.655-0.451 10.113-0.275 4.201 0.214 6.717 0.091 7.581-0.371 0.845-0.452 1.66-0.498 2.353-0.132 0.583 0.308 3.641 0.88 6.794 1.272 5.394 0.67 10 0.315 13.54-1.043 0.512-0.196 0.716 0.171 0.613 1.103-0.144 1.306 0.121 1.431 4.032 1.902 5.348 0.644 16.356 0.244 18.023-0.655 1.103-0.595 1.325-0.515 1.612 0.58 0.319 1.219 0.57 1.256 6.195 0.906 3.225-0.201 7.873-0.901 10.329-1.558 5.234-1.398 5.378-1.3 5.392 3.653 0.005 1.872 0.282 3.572 0.615 3.778s3.008-0.316 5.943-1.161c3.594-1.034 6.792-1.535 9.795-1.535 2.7 0 5.958-0.456 8.259-1.157 2.09-0.636 4.742-1.131 5.893-1.099 1.246 0.034 4.513-0.981 8.073-2.508 3.289-1.411 7.056-2.704 8.372-2.873 1.527-0.196 5.231-1.991 10.246-4.965 23.533-13.956 41.021-19.851 50.617-17.061 3.824 1.112 9.69 5.589 12.073 9.215 1.807 2.749 2.659 6.433 2.175 9.407-0.541 3.327-1.86 3.424-1.86 0.137 0-6.065-2.77-11.088-6.323-11.467-0.931-0.099-1.795-0.488-1.92-0.864-0.37-1.109-3.031-0.784-4.901 0.598l-1.734 1.282-6.512-1.581c-3.582-0.87-7.239-1.581-8.127-1.581-2.298 0-9.41 2.862-19.965 8.035l-9.119 4.469v4.752l-3.139 0.64c-1.727 0.352-4.874 0.986-6.993 1.408-3.673 0.732-3.879 0.866-4.389 2.841-0.294 1.14-0.669 2.207-0.833 2.372-0.164 0.164-3.48 0.299-7.368 0.299s-7.251 0.18-7.472 0.399c-0.221 0.22-0.55 1.498-0.73 2.84-0.18 1.343-0.437 2.441-0.572 2.441-0.134 0-1.299-0.538-2.588-1.196-1.883-0.961-3.524-1.196-8.348-1.196-4.189 0-6.004 0.212-6.004 0.7 0 0.385-0.433 1.179-0.962 1.764-0.92 1.017-1.036 1.009-2.641-0.178-1.388-1.027-2.308-1.196-5.317-0.978-2.975 0.215-3.96 0.571-5.404 1.955-1.673 1.603-1.963 1.671-5.531 1.3-2.071-0.216-6.36-1.174-9.532-2.13-5.537-1.669-6.503-1.764-24.218-2.374-10.148-0.35-22.891-0.806-28.318-1.015-5.427-0.208-11.75-0.415-14.052-0.459l-4.186-0.08-1.063 2.174c-0.968 1.979-1.959 2.588-11.063 6.794-5.5 2.541-10.889 5.128-11.977 5.749s-2.063 1.129-2.168 1.129-0.358-0.841-0.564-1.869zm-201.29-37.387c0-0.726 10.941-21.429 12.655-23.946 0.939-1.379 3.892-4.816 6.563-7.637 16.872-17.824 42.549-32.186 64.2-35.907 6.464-1.111 17.179-1.378 25.619-0.639l5.288 0.463-1.463 1.586c-6.141 6.658-9.601 15.708-13.947 36.474-1.18 5.637-1.903 6.671-4.668 6.671-5.336 0-11.509 3.618-18.355 10.758-1.768 1.844-3.618 3.126-5.099 3.536-1.279 0.353-8.245 1.076-15.48 1.606-11.91 0.872-13.536 1.124-17.17 2.662-3.772 1.595-4.695 1.721-15.248 2.081-7.327 0.25-13.18 0.782-16.831 1.531-6.397 1.312-6.063 1.27-6.063 0.76zm189.02 37.014c-0.638-1.233-3.889-5.129-7.225-8.657-5.684-6.011-6.542-6.667-13.652-10.442-8.651-4.592-12.959-6.281-19.42-7.616-2.497-0.516-5.808-1.612-7.356-2.435-3.213-1.708-6.541-1.927-8.495-0.559-1.276 0.894-1.473 0.82-4.169-1.557-3.273-2.887-6.848-4.807-11.5-6.176-4.878-1.436-5.036-1.605-3.843-4.107l1.01-2.118-2.321-4.32c-2.277-4.238-5.496-8.092-8.739-10.466l-1.635-1.196 1.818-8.671c1-4.769 2.89-11.9 4.201-15.846 2.292-6.904 7.448-17.301 9.445-19.049 0.83-0.727 1.853-0.642 7.539 0.627 10.37 2.314 20.802 6.032 30.198 10.762 26.169 13.174 41.359 32.189 44.274 55.422 1.325 10.562 0.154 19.125-4.179 30.55-3.429 9.043-4.006 9.61-5.949 5.853zm-123.12 111.06c-2.225-2.073-3.282-4.88-3.746-9.947-0.324-3.535-0.861-5.596-1.948-7.475-0.852-1.472-1.921-4.866-2.471-7.849-1.285-6.96-1.743-8.04-4.695-11.075-2.236-2.298-2.394-2.641-1.46-3.169 1.283-0.726 1.339-2.86 0.149-5.708-0.493-1.181-0.897-3.272-0.897-4.648 0-1.94-0.705-3.702-3.139-7.85-4.052-6.903-9.563-12.402-18.687-18.646-3.947-2.701-9.463-6.674-12.259-8.829-8.927-6.882-16.367-9.782-23.265-9.071-2.072 0.214-5.072 1.224-8.203 2.761-4.103 2.014-5.542 2.424-8.521 2.424-5.453 0-8.583-1.632-10.614-5.537-1.587-3.05 0.268-4.753 6.945-6.376 4.337-1.055 5.154-2.222 3.104-4.435-0.658-0.711-1.493-2.408-1.855-3.772-0.696-2.623-1.466-3.201-4.268-3.201-2.346 0-3.825-2.246-3.305-5.018 0.429-2.288 2.874-4.767 9.918-10.057 15.756-11.832 27.1-16.208 42.157-16.261 8.211-0.029 17.531 1.067 20.032 2.355 3.194 1.645 6.171 6.031 7.804 11.498 0.419 1.402 1.094 2.825 1.502 3.163 1.728 1.434 11.649 3.577 19.098 4.126 4.276 0.315 9.711 0.982 12.08 1.483 6.927 1.464 17.636 2.29 26.098 2.012 6.61-0.217 8.315-0.475 10.676-1.614 3.285-1.585 10.297-7.817 11.574-10.286 1.482-2.865 3.971-3.738 9.51-3.332 9.346 0.684 20.304 4.416 29.4 10.014 3.831 2.357 7.614 5.554 13.797 11.654 11.221 11.073 12.223 13.221 9.087 19.485-0.963 1.924-1.578 2.326-5.283 3.451-2.584 0.785-4.427 1.712-4.805 2.417-1.588 2.968-0.031 5.659 4.329 7.481 1.229 0.513 2.234 1.078 2.234 1.254 0 0.903-1.905 3.757-3.553 5.325-1.609 1.53-2.305 1.768-5.052 1.728-4.735-0.068-11.438-2.335-16.541-5.593-5.406-3.452-8.147-4.269-14.222-4.241-7.126 0.033-14.637 2.467-29.4 9.526-5.884 2.814-6.79 3.502-14.423 10.966-9.149 8.946-11.888 12.678-11.888 16.193 0 2.545-0.686 4.202-2.616 6.322l-1.271 1.396 1.644 1.416c0.904 0.779 1.644 1.708 1.644 2.064 0 1.218-1.883 3.524-2.64 3.233-0.965-0.37-1.864 0.772-2.402 3.053-0.683 2.895-3.43 8.847-4.831 10.465-0.712 0.822-1.91 2.975-2.662 4.784-2.104 5.058-5.241 11.113-6.316 12.188-1.331 1.331-3.981 1.214-5.547-0.245zm65.939 200.31c-0.525-0.849 1.974-3.326 7.983-7.913 5.397-4.121 8.895-10.227 8.365-14.605-0.178-1.473-0.526-1.595-9.913-3.477-14.389-2.885-18.742-4.535-20.465-7.754-1.429-2.67-0.413-2.961 11.835-3.388 11.498-0.401 13.968-0.828 18.731-3.238 5.452-2.759 11.302-11.669 11.495-17.508 0.089-2.699 0.042-2.779-1.552-2.612-1.267 0.133-1.644-0.084-1.644-0.941 0-0.789 0.653-1.274 2.242-1.667 2.869-0.709 3.486-2.915 1.073-3.833-3.383-1.286-2.314-4.196 1.542-4.196 2.536 0 3.289-1.405 1.122-2.093-1.079-0.342-2.778-2.542-2.29-2.964 0.109-0.094 1.801-0.408 3.761-0.696 3.544-0.522 3.567-0.539 4.297-3.065 0.725-2.508 0.714-2.544-0.872-2.89-0.883-0.193-1.942-0.454-2.353-0.581-1.223-0.377-0.851-2.61 0.692-4.153 1.191-1.191 1.826-1.376 3.678-1.076 2.67 0.433 3.853-0.736 3.853-3.808 0-1.585-0.352-2.145-1.831-2.91-2.645-1.368-2.249-3.425 0.753-3.91 4.24-0.685 4.851-1.839 6.418-12.111l1.084-7.106-1.74-6.067c-2.262-7.885-4.162-11.73-7.392-14.96-3.693-3.693-6.619-5.251-17.108-9.109-10.106-3.718-17.578-7.238-19.217-9.054-0.991-1.099-0.995-1.232-0.059-2.01 1.2-0.997 10.152-1.104 25.826-0.307l10.354 0.527-1.232-2.021c-2.519-4.132-1.431-6.149 4.355-8.071l2.955-0.981-2.013-0.846c-4.627-1.945-4.898-3.949-0.817-6.042l2.091-1.073-1.813-1.737-1.813-1.737 1.571-1.64 1.571-1.64-0.304-9.159c-0.311-9.369-1.045-13.346-3.524-19.108-3.01-6.996-8.547-5.997-15.101 2.725-1.627 2.165-1.791 2.243-2.541 1.216-0.441-0.604-0.803-1.813-0.803-2.688 0-3.271-1.205-5.146-5.11-7.956-2.123-1.527-3.859-3.005-3.859-3.285 0-0.621 9.32-3.78 23.321-7.905 20.502-6.04 29.673-10.603 33.58-16.708l0.957-1.495 1.008 2.392c1.643 3.898 4.884 15.036 6.574 22.59 8.942 39.967 5.216 89.868-10.155 135.97-7.613 22.833-16.93 41.943-27.212 55.81-4.082 5.506-17.724 19.353-24.588 24.958-8.396 6.856-14.513 9.925-15.761 7.907zm4.976-224.88c-1.206-1.356-2.049-1.775-3.303-1.644-0.926 0.097-2.343-0.285-3.148-0.849-0.806-0.564-1.799-1.026-2.208-1.026s-1.962-0.414-3.452-0.92c-2.06-0.699-3.004-0.761-3.943-0.259-1.756 0.94-4.389 0.19-7.4-2.109-1.963-1.498-2.771-1.817-3.291-1.298-0.519 0.519-0.801 0.507-1.146-0.051-0.251-0.407-2.124-0.914-4.161-1.127s-3.704-0.652-3.704-0.975c0-0.333-0.772-0.433-1.782-0.231-1.373 0.275-1.922 0.095-2.392-0.783-1.821-3.403 1.314-7.957 9.086-13.2 8.136-5.488 8.693-5.952 11.308-9.416 4.268-5.653 12.748-10.967 20.737-12.995 6.678-1.696 11.98-2.175 13.444-1.215 0.73 0.478 3.883 1.582 7.006 2.452 4.863 1.355 7.354 1.64 17.339 1.987 11.429 0.396 11.724 0.439 14.865 2.164 3.768 2.069 6.849 5.412 8.821 9.571 1.719 3.626 1.754 4.498 0.291 7.349-3.173 6.187-12.243 10.584-36.766 17.824-10.942 3.231-16.394 5.121-23.987 8.318-0.329 0.138-1.327-0.567-2.217-1.569zm-158.44-21.608c-16.447-22.681-21.946-31.885-22.501-37.666-0.506-5.268 1.378-5.802 12.137-3.437 10.724 2.358 12.549 2.545 17.341 1.78 9.41-1.502 12.193-1.452 17.341 0.311 6.5 2.226 12.176 5.09 18.238 9.203 4.242 2.878 5.387 4.014 6.925 6.867 2.619 4.86 5.433 7.998 10.249 11.431 7.651 5.453 12.793 15.991 8.472 17.363-0.629 0.2-2.618 0.363-4.42 0.363-2.208 0-3.43 0.277-3.751 0.849-0.369 0.66-0.921 0.721-2.474 0.276-2-0.574-4.238 0.031-4.238 1.145 0 0.286-1.033 0.382-2.295 0.212-1.454-0.195-2.953 0.033-4.091 0.621-1.645 0.851-1.882 0.844-2.809-0.084-0.779-0.78-2.072-1.009-5.626-0.998-2.538 0.008-5.489 0.244-6.557 0.523-1.604 0.419-1.943 0.338-1.943-0.464 0-1.379-1.59-1.205-4.486 0.492-1.511 0.886-2.998 1.333-3.764 1.133-1.505-0.394-9.687 2.681-10.117 3.802-0.164 0.427-0.482 0.777-0.708 0.777-0.225 0-5.141-6.525-10.925-14.501zm-43 223.63c-5.261-3.545-10.426-12.96-19.112-34.833-7.314-18.419-10.643-32.402-13.45-56.494-2.215-19.01-1.625-34.506 2.478-65.097 2.297-17.129 5.702-32.098 11.58-50.911 1.857-5.943 3.146-11.414 3.593-15.248 1.173-10.054 2.888-16.887 5.298-21.106 4.384-7.675 6.135-8.705 13.1-7.703 4.391 0.631 4.936 0.338 7.024-3.783 1.226-2.42 2.859-3.932 7.269-6.73 0.494-0.313 1.021 0.612 1.702 2.99 2.058 7.176 7.887 16.605 23.197 37.523 7.803 10.661 8.621 12.002 7.563 12.393-0.652 0.241-1.746 1.387-2.43 2.547-0.684 1.159-1.419 2.105-1.633 2.101s-1.427-1.501-2.695-3.328c-1.268-1.826-2.967-3.572-3.776-3.88s-3.552-0.559-6.094-0.559c-4.565 0-4.65 0.028-6.754 2.242-7.32 7.706-13.66 20.534-13.66 27.636 0 1.045 0.649 3.024 1.443 4.399 0.794 1.374 1.714 3.507 2.045 4.741l0.602 2.242-1.895 0.009c-4.034 0.02-4.468 2.342-0.729 3.904 1.144 0.478 2.393 1.453 2.775 2.168 0.602 1.126 0.486 1.451-0.875 2.443-3.282 2.391-1.289 3.561 7.399 4.344 7.46 0.672 14.414 2.004 18.953 3.629 4.892 1.752 6.107 2.759 4.975 4.124-1.218 1.467-4.585 2.073-15.257 2.744-16.466 1.036-22.919 2.609-28.693 6.996-5.943 4.516-10.173 13.278-10.897 22.574-0.307 3.946-0.228 4.317 1.327 6.165 1.238 1.471 1.483 2.138 0.973 2.648-1.21 1.21-0.823 3.905 0.626 4.365 1.263 0.401 1.269 0.443 0.185 1.236-0.618 0.452-1.61 0.821-2.205 0.821-1.738 0-1.25 1.604 1.011 3.329 2.401 1.832 2.574 2.628 0.897 4.145-1.996 1.807-1.556 3.587 1.046 4.23 1.846 0.456 2.242 0.819 2.242 2.049 0 1.312-0.242 1.484-1.976 1.403-1.923-0.089-1.971-0.033-1.794 2.093 0.172 2.063 0.298 2.185 2.275 2.185 1.821 0 2.117 0.207 2.277 1.589 0.157 1.353-0.094 1.651-1.685 2-2.545 0.559-2.897 1.883-0.976 3.665 0.869 0.806 1.59 1.925 1.601 2.487 0.013 0.602 1.057 1.514 2.541 2.218 2.877 1.366 3.731 3.517 1.658 4.175-0.677 0.215-1.231 0.885-1.231 1.49 0 0.795-0.322 1.015-1.162 0.796-0.749-0.196-1.733 0.267-2.767 1.301-1.476 1.476-1.574 1.869-1.22 4.88 1.116 9.496 9.809 21.611 17.049 23.762 1.574 0.467 3.961 1.411 5.304 2.096s4.547 1.82 7.12 2.522c8.254 2.252 9.9 3.828 5.725 5.482-1.853 0.734-4.009 0.807-12.408 0.42-5.591-0.258-12.077-0.659-14.412-0.892-2.947-0.294-4.666-0.199-5.618 0.31-1.33 0.712-1.36 0.912-1.005 6.746 0.32 5.246 0.632 6.552 2.452 10.248 1.147 2.329 2.797 5.379 3.668 6.777l1.582 2.541h-2.065c-1.158 0-2.951-0.597-4.082-1.359z" word-spacing="0" stroke="#000" font-size="357.75" font-family="Comic Sans MS" fill="#b3b3b3"/>
</svg>
