<svg xmlns:rdf="http://www.w3.org/1999/02/22-rdf-syntax-ns#" xmlns="http://www.w3.org/2000/svg" height="121.32mm" width="399.78mm" version="1.1" xmlns:cc="http://creativecommons.org/ns#" xmlns:dc="http://purl.org/dc/elements/1.1/" viewBox="0 0 1416.555 429.88666">
	<g transform="translate(289.15 -279.93)">
		<g transform="matrix(.77720 0 0 .77720 -74.024 240.04)">
			<g stroke-width="3.86" fill="#b3b3b3">
				<g stroke="#000">
					<path d="m364.25 574.24c-6.7705-4.5627-13.419-16.679-24.597-44.83-9.413-23.705-13.697-41.701-17.31-72.708-2.8502-24.465-2.091-44.409 3.189-83.779 2.9566-22.045 7.3386-41.311 14.903-65.522 2.3899-7.6491 4.0491-14.69 4.6246-19.625 1.5091-12.939 3.7166-21.733 6.8182-27.163 5.6423-9.8776 7.896-11.203 16.86-9.9139 5.6512.81258 6.3529.43465 9.0405-4.869 1.5785-3.115 3.6796-5.0604 9.3549-8.6615.63525-.40308 1.3135.78808 2.191 3.848 2.6484 9.235 10.151 21.371 29.855 48.292 10.042 13.72 11.095 15.446 9.734 15.95-.83957.31058-2.2468 1.7856-3.1272 3.2777-.88039 1.4922-1.8262 2.7089-2.1019 2.7039-.27565-.005-1.8363-1.9322-3.4682-4.2826-1.6318-2.3504-3.8189-4.5974-4.8601-4.9933-1.0412-.39587-4.5708-.71976-7.8436-.71976-5.8757 0-5.9849.0363-8.6918 2.886-9.4205 9.9177-17.581 26.427-17.581 35.568 0 1.345.83555 3.8924 1.8568 5.6609s2.2054 4.5141 2.6316 6.1014l.77476 2.886-2.4392.0118c-5.1915.0251-5.7498 3.0138-.93854 5.0241 1.4722.61511 3.0792 1.8706 3.5712 2.7899.77533 1.4487.62517 1.8678-1.1266 3.1438-4.2237 3.0767-1.6586 4.5826 9.5227 5.5903 9.6016.86539 18.551 2.579 24.392 4.6706 6.2957 2.2542 7.86 3.551 6.4023 5.3074-1.5671 1.8882-5.9005 2.6677-19.636 3.5318-21.192 1.3333-29.497 3.3583-36.928 9.0045-7.6488 5.8118-13.093 17.089-14.025 29.052-.39564 5.079-.29283 5.5566 1.7083 7.9348 1.5935 1.8938 1.9086 2.7512 1.2522 3.4076-1.5566 1.5566-1.0589 5.0254.80598 5.6173 1.625.51576 1.6332.57064.2377 1.5911-.79494.58128-2.0718 1.0569-2.8374 1.0569-2.2365 0-1.6094 2.0647 1.3015 4.285 3.0904 2.3572 3.3122 3.3822 1.1544 5.335-2.5691 2.325-2.0022 4.6165 1.3468 5.4438 2.3752.58675 2.886 1.0534 2.886 2.6369 0 1.6879-.31204 1.9095-2.5432 1.8059-2.4746-.11486-2.5369-.0422-2.3088 2.6936.22141 2.6556.38392 2.8116 2.928 2.8116 2.3434 0 2.7244.26593 2.9303 2.0455.20142 1.7408-.12159 2.1242-2.1684 2.5738-3.2751.71934-3.7289 2.4238-1.2558 4.7169 1.1182 1.0369 2.0457 2.4773 2.061 3.2009.0164.77519 1.36 1.9479 3.2708 2.8548 3.7028 1.7575 4.8021 4.5259 2.1334 5.3729-.87123.27652-1.5841 1.1396-1.5841 1.918 0 1.0227-.41492 1.3068-1.4958 1.0241-.96348-.25195-2.231.34402-3.5617 1.6748-1.8992 1.8993-2.026 2.4059-1.5706 6.28 1.4364 12.222 12.624 27.814 21.942 30.581 2.0258.6016 5.0977 1.8154 6.8265 2.6974 1.7288.88195 5.8526 2.3428 9.164 3.2463 10.622 2.8983 12.741 4.9269 7.3675 7.0558-2.3843.94471-5.1602 1.0386-15.969.54017-7.1957-.33182-15.543-.84847-18.549-1.1481-3.7927-.37807-6.0054-.25581-7.2298.39946-1.712.91622-1.7504 1.174-1.2929 8.6824.41134 6.7517.81355 8.433 3.1552 13.189 1.4761 2.998 3.6001 6.9228 4.7201 8.7217l2.0363 3.2708h-2.6579c-1.4898 0-3.7985-.76866-5.2533-1.749z"/>
					<path d="m419.59 286.43c-21.168-29.191-28.244-41.036-28.959-48.476-.65152-6.7806 1.7732-7.4671 15.62-4.4229 13.802 3.0342 16.15 3.2752 22.318 2.2904 12.11-1.9335 15.692-1.8692 22.318.40022 8.3658 2.8652 15.671 6.5512 23.473 11.844 5.4596 3.704 6.9337 5.1658 8.9124 8.8379 3.3703 6.2548 6.992 10.294 13.191 14.712 9.8472 7.0175 16.465 20.58 10.903 22.346-.80986.25704-3.3694.46735-5.688.46735-2.8419 0-4.4148.35618-4.8272 1.0931-.47522.84918-1.1858.92848-3.1842.35536-2.574-.7382-5.4542.0401-5.4542 1.4738 0 .36811-1.3289.49105-2.9531.27319-1.8711-.25097-3.8004.042-5.2654.79965-2.1171 1.0948-2.4223 1.0857-3.6146-.10787-1.0031-1.0041-2.6667-1.2991-7.2405-1.2839-3.266.0109-7.0638.31389-8.4394.6734-2.0639.53938-2.5012.43502-2.5012-.59693 0-1.7751-2.0466-1.5505-5.7735.63359-1.9451 1.1399-3.8587 1.7159-4.8443 1.4581-1.9374-.50664-12.467 3.4501-13.021 4.8927-.21108.55005-.62088 1.0001-.91068 1.0001-.28979 0-6.6169-8.3982-14.06-18.663z"/>
					<path d="m623.5 314.24c-1.5522-1.745-2.6369-2.2849-4.2507-2.1156-1.1917.125-3.0149-.36685-4.0516-1.093-1.0367-.72614-2.3153-1.3203-2.8412-1.3203-.52594 0-2.525-.53261-4.4424-1.1836-2.651-.90002-3.8666-.97994-5.0744-.33356-2.2604 1.2097-5.6489.24416-9.524-2.7138-2.5262-1.9283-3.5668-2.3387-4.2351-1.6704-.66833.66833-1.0306.65219-1.4743-.0657-.32352-.52346-2.7333-1.176-5.3551-1.45-2.6218-.27403-4.7669-.83851-4.7669-1.2544 0-.42862-.99352-.55746-2.2936-.29744-1.7667.35335-2.4739.12188-3.0784-1.0076-2.3436-4.379 1.6912-10.24 11.694-16.988 10.471-7.0633 11.188-7.6606 14.554-12.118 5.4925-7.2748 16.407-14.115 26.688-16.725 8.5952-2.1822 15.418-2.799 17.302-1.5643.93954.61561 4.9972 2.0356 9.017 3.1556 6.2589 1.7438 9.4645 2.1111 22.316 2.5568 14.709.51022 15.089.56548 19.131 2.7852 4.85 2.6632 8.8147 6.9652 11.353 12.318 2.2124 4.6667 2.2569 5.7886.37499 9.4582-4.0832 7.962-15.757 13.621-47.317 22.94-14.082 4.1578-21.099 6.5912-30.872 10.705-.42328.17821-1.7074-.7303-2.8536-2.0189z"/>
					<path d="m617.1 603.66c-.67504-1.0922 2.5412-4.2802 10.275-10.184 6.9464-5.3032 11.447-13.162 10.765-18.796-.22951-1.8955-.67721-2.0526-12.758-4.475-18.519-3.7134-24.122-5.8359-26.339-9.9788-1.8392-3.4367-.53157-3.811 15.231-4.3601 14.798-.5155 17.977-1.065 24.107-4.1669 7.0162-3.5503 14.546-15.018 14.794-22.533.11475-3.4734.0537-3.5761-1.998-3.3613-1.6302.17064-2.1164-.1076-2.1164-1.2111 0-1.0156.83997-1.6401 2.886-2.1455 3.6922-.91209 4.4869-3.7518 1.3804-4.9329-4.3544-1.6556-2.9783-5.4 1.9846-5.4 3.2635 0 4.2331-1.8087 1.4441-2.6938-1.3882-.44061-3.5755-3.2718-2.9475-3.8152.14011-.12126 2.3183-.52449 4.8404-.89608 4.5609-.67196 4.5907-.69325 5.5301-3.9442.93254-3.2274.91841-3.2742-1.1224-3.7199-1.1368-.24822-2.4998-.58468-3.0289-.74768-1.5743-.485-1.0956-3.3594.89027-5.3453 1.5322-1.5322 2.35-1.7715 4.733-1.3848 3.4363.55764 4.9587-.94706 4.9587-4.9011 0-2.0405-.4535-2.7612-2.3565-3.7453-3.4041-1.7604-2.8942-4.4077.96937-5.032 5.4567-.88179 6.2439-2.3672 8.2598-15.587l1.3946-9.1457-2.24-7.8082c-2.9114-10.149-5.356-15.096-9.5133-19.253-4.7524-4.7524-8.5186-6.7577-22.018-11.723-13.007-4.7845-22.623-9.3153-24.732-11.652-1.2758-1.4142-1.2808-1.5853-.0757-2.5867 1.5449-1.2837 13.066-1.4205 33.238-.39467l13.325.67768-1.5861-2.6017c-3.2421-5.318-1.8413-7.9142 5.6047-10.387l3.8027-1.263-2.5907-1.0893c-5.9543-2.5036-6.3032-5.0826-1.052-7.7766l2.6914-1.3808-2.3335-2.2356-2.3335-2.2356 2.0221-2.1106 2.0221-2.1106-.39171-11.788c-.4007-12.058-1.3444-17.176-4.5348-24.592-3.8736-9.0044-11-7.7184-19.435 3.5068-2.0936 2.7862-2.3045 2.8872-3.2708 1.5656-.56811-.77693-1.0329-2.3337-1.0329-3.4594 0-4.2094-1.5503-6.6229-6.5771-10.239-2.7318-1.9652-4.9669-3.8676-4.9669-4.2276 0-.79904 11.995-4.8645 30.014-10.173 26.387-7.7736 38.189-13.646 43.217-21.504l1.2312-1.924 1.2973 3.0784c2.1142 5.0168 6.2862 19.352 8.4613 29.073 11.509 51.438 6.7126 115.66-13.069 174.99-9.7976 29.387-21.789 53.981-35.022 71.828-5.2541 7.0862-22.811 24.907-31.645 32.121-10.806 8.8239-18.679 12.774-20.284 10.176z"/>
					<path d="m532.24 345.86c-2.8642-2.6684-4.2246-6.2801-4.8217-12.801-.41663-4.55-1.1078-7.2023-2.5071-9.62-1.0964-1.8944-2.4719-6.2631-3.1806-10.102-1.6538-8.9578-2.2427-10.347-6.0426-14.253-2.8774-2.9581-3.0805-3.3989-1.8793-4.0786 1.6518-.93466 1.7237-3.6809.1924-7.3459-.63491-1.5196-1.1544-4.2116-1.1544-5.9822 0-2.4964-.90726-4.7651-4.0404-10.103-5.2145-8.8842-12.308-15.962-24.05-23.997-5.0793-3.4759-12.179-8.5891-15.777-11.363-11.489-8.8569-21.065-12.59-29.942-11.674-2.6665.27521-6.5277 1.5747-10.558 3.5532-5.2806 2.5924-7.133 3.1193-10.967 3.1193-7.0185 0-11.046-2.101-13.66-7.1257-2.0419-3.925.34522-6.1165 8.9387-8.2062 5.5814-1.3572 6.6327-2.8596 3.9946-5.7083-.84702-.91461-1.9211-3.0992-2.3868-4.8546-.8956-3.3758-1.8873-4.1195-5.4928-4.1195-3.0194 0-4.9233-2.8906-4.2539-6.4585.55238-2.9444 3.6994-6.1355 12.765-12.943 20.278-15.228 34.878-20.86 54.257-20.928 10.567-.0375 22.562 1.3726 25.781 3.0306 4.1101 2.1169 7.9416 7.7622 10.044 14.798.53894 1.804 1.4086 3.6357 1.9326 4.0706 2.2238 1.8456 14.992 4.6038 24.58 5.3097 5.5026.40513 12.499 1.2638 15.547 1.9081 8.9152 1.8845 22.697 2.9468 33.589 2.589 8.5073-.27948 10.701-.61115 13.74-2.0776 4.2273-2.0395 13.253-10.06 14.896-13.238 1.907-3.6878 5.1105-4.8102 12.24-4.2885 12.029.8803 26.131 5.6839 37.838 12.888 4.9302 3.0341 9.7999 7.1475 17.756 14.999 14.441 14.25 15.731 17.016 11.695 25.077-1.2399 2.4767-2.0312 2.9937-6.799 4.4418-3.3258 1.0102-5.6979 2.2036-6.1835 3.1109-2.0444 3.8199-.0404 7.2826 5.5719 9.6275 1.5815.6608 2.8755 1.3872 2.8755 1.6142 0 1.1618-2.4517 4.8356-4.5732 6.8527-2.0711 1.9692-2.9663 2.2755-6.5015 2.2244-6.0937-.0881-14.72-3.0049-21.288-7.1977-6.9578-4.4421-10.486-5.4942-18.303-5.458-9.1716.0425-18.838 3.1746-37.838 12.26-7.5734 3.6215-8.7389 4.5077-18.562 14.113-11.775 11.514-15.3 16.316-15.3 20.84 0 3.2749-.88276 5.4081-3.367 8.1364l-1.6354 1.7961 2.1164 1.8225c1.164 1.0024 2.1164 2.1976 2.1164 2.6561 0 1.5674-2.4234 4.5351-3.398 4.1612-1.242-.47662-2.3987.9937-3.0912 3.9294-.87899 3.7265-4.4149 11.386-6.2173 13.468-.91608 1.0582-2.4577 3.8287-3.4259 6.1568-2.7072 6.5099-6.7455 14.302-8.1287 15.685-1.7128 1.7128-5.1236 1.5618-7.1391-.31587z"/>
					<path d="m690.7 202.93c-.82095-1.5873-5.005-6.6008-9.298-11.141-7.3148-7.7364-8.419-8.581-17.571-13.438-11.134-5.9097-16.678-8.084-24.993-9.8015-3.2141-.66389-7.4745-2.0741-9.4676-3.1339-4.1352-2.1987-8.4184-2.4804-10.933-.7191-1.6428 1.1506-1.8962 1.056-5.366-2.0042-4.2125-3.7152-8.8136-6.186-14.801-7.9484-6.2783-1.848-6.4817-2.0654-4.9458-5.2863l1.3-2.7262-2.9871-5.5596c-2.9303-5.4539-7.0728-10.415-11.248-13.469l-2.1036-1.5392 2.34-11.159c1.287-6.1375 3.72-15.315 5.4066-20.394 2.9503-8.8849 9.5851-22.267 12.155-24.516 1.0688-.93531 2.385-.82584 9.7021.80699 13.346 2.9783 26.772 7.7628 38.865 13.851 33.679 16.955 53.229 41.427 56.98 71.328 1.7053 13.593.19762 24.614-5.3786 39.318-4.4136 11.638-5.1561 12.368-7.6569 7.5329z"/>
					<path d="m447.43 155.3c0-.93443 14.081-27.579 16.286-30.818 1.2084-1.7746 5.0094-6.1976 8.4466-9.8288 21.714-22.94 54.761-41.423 82.626-46.213 8.3196-1.4301 22.109-1.7738 32.972-.82188l6.806.59645-1.8827 2.0413c-7.903 8.5686-12.357 20.217-17.95 46.942-1.5184 7.255-2.4497 8.5861-6.0078 8.5861-6.8673 0-14.812 4.6566-23.622 13.846-2.2755 2.3733-4.6558 4.0238-6.5627 4.5505-1.6457.45458-10.611 1.3846-19.923 2.0666-15.328 1.1227-17.42 1.447-22.098 3.4257-4.8542 2.0532-6.0428 2.2155-19.625 2.6787-9.4297.32162-16.963 1.0068-21.661 1.97-8.2336 1.6881-7.8036 1.6342-7.8036.97824z"/>
					<path d="m706.49 203.41c-.26455-1.3227-.481-3.6715-.481-5.2194 0-1.548-.46874-4.6215-1.0416-6.8302-.91647-3.5331-.90147-4.0157.12478-4.0157 1.4524 0 5.5995-2.3988 17.697-10.236l9.4686-6.1345 2.1925 2.1006c2.1327 2.0432 2.3268 2.0796 7.1157 1.3341 2.7078-.42156 8.565-.58061 13.016-.35344 5.4071.27596 8.645.11753 9.7566-.47741 1.0872-.58186 2.1367-.6408 3.0283-.17007.75048.3962 4.6855 1.1329 8.7444 1.637 6.9416.8622 12.87.40536 17.426-1.3428.65895-.25286.92167.21967.78936 1.4197-.18529 1.6806.15565 1.8414 5.1888 2.4479 6.8825.82931 21.05.31416 23.195-.84342 1.4198-.76603 1.7055-.66318 2.0742.74662.4102 1.5686.73418 1.616 7.9733 1.1657 4.1502-.25814 10.132-1.1602 13.293-2.0046 6.7357-1.7993 6.9221-1.673 6.9392 4.7013.006 2.4089.36285 4.5967.79193 4.8619.42908.26519 3.8709-.40701 7.6484-1.4938 4.6257-1.3308 8.7419-1.9759 12.607-1.9759 3.4747 0 7.6679-.58725 10.63-1.4886 2.6901-.81875 6.1032-1.4552 7.5846-1.4144 1.6034.0442 5.8085-1.2622 10.39-3.2278 4.2328-1.8161 9.0812-3.48 10.774-3.6975 1.9657-.25255 6.732-2.5623 13.187-6.3904 30.287-17.962 52.794-25.549 65.145-21.958 4.9215 1.4307 12.471 7.193 15.539 11.86 2.3252 3.5376 3.4215 8.2788 2.7993 12.107-.6959 4.2816-2.3937 4.4066-2.3937.17622 0-7.8059-3.5648-14.27-8.1383-14.758-1.1977-.12769-2.3096-.62824-2.471-1.1123-.47572-1.4272-3.9012-1.009-6.3074.77l-2.232 1.6502-8.3811-2.035c-4.6096-1.1192-9.3166-2.035-10.46-2.035-2.9577 0-12.111 3.6836-25.694 10.341l-11.736 5.7518v3.0582 3.0582l-4.0404.82355c-2.2222.45296-6.2725 1.2685-9.0006 1.8123-4.7268.94222-4.9926 1.1143-5.6487 3.6562-.37868 1.4671-.86122 2.8406-1.0723 3.0522-.21109.21163-4.4782.38479-9.4826.38479-5.0043 0-9.3318.23114-9.6165.51364-.28474.2825-.70735 1.9275-.93914 3.6556-.23178 1.7281-.56277 3.142-.73555 3.142-.17276 0-1.6718-.69264-3.3312-1.5392-2.424-1.2366-4.5358-1.5392-10.744-1.5392-5.3912 0-7.7266.27246-7.7266.9014 0 .49577-.55725 1.5172-1.2383 2.2698-1.184 1.3083-1.3332 1.2983-3.3988-.22896-1.787-1.3212-2.97-1.5388-6.8432-1.2586-3.8294.27699-5.0968.73544-6.9552 2.5159-2.1536 2.0633-2.5258 2.1508-7.118 1.6727-2.665-.27744-8.1856-1.5111-12.268-2.7415-7.1263-2.1478-8.369-2.2697-31.169-3.0552-13.061-.44997-29.461-1.0377-36.445-1.306-6.9841-.26833-15.123-.53414-18.086-.59071l-5.3872-.10284-1.3683 2.7983c-1.2456 2.5474-2.5219 3.3312-14.238 8.7439-7.0781 3.2701-14.015 6.5996-15.414 7.3989-1.3998.79927-2.6552 1.4532-2.7898 1.4532-.13454 0-.46106-1.0822-.72561-2.405z"/>
					<path d="m293.38 247.88c-.46451-.12078-1.135-1.3054-1.4899-2.6324-.41145-1.5384-1.1582-2.7488-2.0604-3.34-1.5655-1.0257-5.3984-1.2559-9.8403-.59087l-2.8073.42029-.91576-2.3979c-1.0709-2.8041-1.8559-3.0525-9.6766-3.0623-6.3719-.008-8.2894-.81386-9.1001-3.8245-.52232-1.9398-.7831-2.2272-1.8007-1.9848-.65444.15592-3.6754.45326-6.7132.66075-6.3487.43364-6.504.3326-7.0898-4.6143-.28585-2.4136-.46022-2.6805-1.9452-2.9774-.89716-.17943-4.0194-.32624-6.9384-.32624-6.3086 0-6.6714-.25788-6.4704-4.5981l.14024-3.0276-7.3098-4.4054c-15.808-9.5273-20.323-11.135-29.894-10.649-5.9479.30208-11.525 1.4757-11.865 2.4968-.37884 1.1365-1.1592.57613-2.5845-1.856-1.5963-2.7239-2.5614-2.977-7.0449-1.8481-4.8647 1.2249-8.9311 6.7343-9.7988 13.276-.48179 3.6322-.78503 4.6256-1.412 4.6256-.98336 0-1.3981-2.3507-.90411-5.1239 1.3348-7.493 7.5304-15.806 12.988-17.427 1.8275-.54271 3.6914-1.6623 5.3493-3.213 4.918-4.6002 7.6146-4.5311 18.738.47991 9.6001 4.3248 22.005 11.533 37.512 21.798 10.726 7.1003 13.758 8.8681 14.775 8.6131.90589-.22736 2.8412.49269 6.6388 2.4701 5.4276 2.8261 6.3778 3.0843 8.9908 2.4434 1.0922-.2679 2.7166.25363 6.5302 2.0966 6.4439 3.1141 7.149 3.3078 9.3717 2.5742 1.5956-.52659 2.1612-.42731 4.426.7769 1.4282.75936 2.9022 1.3806 3.2756 1.3806.37344 0 2.5574-1.7062 4.8533-3.7915 4.337-3.9393 4.4896-4.0042 10.898-4.635 3.7171-.36582 7.8364-2.1222 10.616-4.5266l1.9047-1.6473-1.8675-1.9429c-1.0271-1.0686-1.7387-2.0717-1.5813-2.2291.15741-.1574 2.1672.006 4.4662.36366l4.18.64985 2.299-2.2122c2.6036-2.5054 7.1091-5.5941 12.498-8.5675 2.0176-1.1133 3.8223-2.2732 4.0103-2.5775.18805-.30427-.95862-1.8701-2.5482-3.4796-1.5895-1.6095-2.7618-3.0547-2.605-3.2114.15675-.15676 2.379.25631 4.9384.91793l4.6534 1.203 3.0571-2.4279c2.9388-2.334 8.0126-5.699 9.2595-6.1411.36382-.12901.0996-.89999-.67372-1.9656-.69978-.96433-1.1859-1.8398-1.0802-1.9455.10568-.10568 1.5505.18593 3.2107.64803l3.0185.84016 7.9315-2.5099c6.5643-2.0772 8.6518-2.5099 12.11-2.5099 4.4608 0 5.5341-.36028 8.3436-2.8007 1.9139-1.6625 4.2111-2.0057 6.275-.93755 1.4845.76835 11.8 8.1179 11.8 8.4072 0 .11684-.7152 1.3793-1.5893 2.8055-1.9944 3.2539-4.4929 9.5984-5.7358 14.565-.52432 2.0951-1.0502 4.1368-1.1687 4.537-.15695.53027-.64065.36981-1.7831-.59153-.86228-.72556-3.2067-2.2774-5.2098-3.4486-3.2199-1.8826-3.8621-2.548-5.5402-5.7404-4.4465-8.459-7.2271-8.3601-17.338.61683-2.6984 2.3957-5.8458 4.4044-10.792 6.8876-3.8406 1.9281-8.371 4.4508-10.067 5.6062-1.6965 1.1554-7.1888 4.3196-12.205 7.0317-5.0164 2.7121-10.526 5.896-12.244 7.0752-6.2393 4.283-11.461 10.871-12.421 15.67-.19018.95092-1.0129 2.0152-2.1177 2.7394-2.7959 1.8328-10.491 3.6687-12.83 3.0608z"/>
					<path d="m449.68 141.72c-.92922-3.0451-2.7666-5.7781-6.3202-9.4007-4.0686-4.1477-5.3673-4.2793-7.8679-.79718-2.8424 3.9579-5.7088 4.9111-9.7238 3.2336-3.867-1.6157-5.6943-4.2421-8.5399-12.274-1.4577-4.1145-1.4839-4.1462-4.6997-5.6832-4.1857-2.0006-4.7548-2.6933-5.4487-6.6331l-.57742-3.2781-3.961-1.1759c-5.5134-1.6367-5.7939-1.9156-6.2374-6.2008-.32209-3.1118-.63413-3.9015-2.1663-5.4824-.98453-1.0158-2.6115-2.2893-3.6155-2.8299-1.4612-.78690-1.8988-1.4231-2.1932-3.1881-1.0143-6.0817-6.0158-16.701-9.901-21.022-2.9844-3.3194-4.4295-4.1038-8.9048-4.8335-1.9082-.31113-4.6716-.93295-6.1409-1.3818-5.8333-1.7821-7.6492-.71040-11.756 6.9385-1.2455 2.3196-2.4993 4.2174-2.7862 4.2174-.80858 0 .0111-3.7493 1.5137-6.9244 1.6181-3.4189 4.3688-5.8767 9.9192-8.8626 2.2816-1.2274 4.9804-2.8303 5.9974-3.5619 2.287-1.6452 3.2018-1.6635 5.3126-.10578 3.3657 2.4837 5.3812 5.5562 12.447 18.975 6.4207 12.193 10.263 18.095 13.92 21.383 1.5275 1.3734 2.9648 2.497 3.1939 2.497.22912 0 1.2025 1.653 2.1632 3.6733 2.1333 4.4867 3.4311 5.9609 6.3705 7.2365 1.6408.71208 2.8718 1.8758 4.4635 4.2197 2.3339 3.4368 3.0193 3.9171 5.5907 3.9171 3.4449 0 6.5883-1.2348 8.982-3.5283 2.2029-2.1108 2.3703-2.4712 2.3703-5.1025 0-3.4239.9384-4.0592 3.3557-2.272 1.6898 1.2493 2.7012 1.2682 6.3004.11723 1.5716-.50256 2.0478-.37467 4.3382 1.1652 3.5407 2.3804 6.9368 6.793 10.713 13.919 1.7577 3.3172 3.4861 6.2722 3.8409 6.5667.47859.39719-.52872 2.8574-3.9012 9.5279-2.5005 4.9459-4.7448 8.9925-4.9872 8.9925-.24244 0-.72102-.91831-1.0635-2.0407z"/>
				</g>
				<text style="word-spacing:0px;letter-spacing:0px" font-family="&apos;Comic Sans MS&apos;" line-height="125%" font-size="369.92px" stroke="#000000" y="471.21631" x="-311.29169" xml:space="preserve"><tspan y="471.21631" x="-311.29169">Bug</tspan></text>
				<text style="word-spacing:0px;letter-spacing:0px" font-family="&apos;Comic Sans MS&apos;" line-height="125%" font-size="369.92px" stroke="#000000" y="510.5022" x="732.12231" xml:space="preserve"><tspan y="510.5022" x="732.12231">Zero</tspan></text>
			</g>
		</g>
	</g>
</svg>
